<?xml version="1.0" encoding="UTF-8" standalone="no"?>
<!DOCTYPE svg PUBLIC "-//W3C//DTD SVG 1.1//EN" "http://www.w3.org/Graphics/SVG/1.1/DTD/svg11.dtd">
<svg xmlns="http://www.w3.org/2000/svg" version="1.1" viewBox="0 0 512 256" width="512.0pt" height="256.0pt" xmlns:xlink="http://www.w3.org/1999/xlink">
<defs>
<path d="M 0.00 0.00 L 512.00 0.00 L 512.00 256.00 L 0.00 256.00 L 0.00 0.00 Z M 13.00 45.00 C 13.01 100.33 12.98 155.67 13.02 211.00 C 175.31 210.98 337.63 211.04 499.93 210.97 C 500.04 155.66 500.04 100.33 499.93 45.02 C 337.63 44.97 175.30 45.02 13.00 45.00 Z" id="p0" />
<path d="M 13.00 45.00 C 175.30 45.02 337.63 44.97 499.93 45.02 C 500.04 100.33 500.04 155.66 499.93 210.97 C 337.63 211.04 175.31 210.98 13.02 211.00 C 12.98 155.67 13.01 100.33 13.00 45.00 Z M 14.00 46.00 C 13.94 100.67 14.12 155.35 13.91 210.02 C 175.65 210.03 337.40 210.05 499.14 210.01 C 499.19 155.35 499.27 100.66 499.10 46.01 C 337.40 46.00 175.70 46.00 14.00 46.00 Z" id="p1" />
<path d="M 14.00 46.00 C 175.70 46.00 337.40 46.00 499.10 46.01 C 499.27 100.66 499.19 155.35 499.14 210.01 C 337.40 210.05 175.65 210.03 13.91 210.02 C 14.12 155.35 13.94 100.67 14.00 46.00 Z M 32.00 64.00 C 32.00 105.67 32.00 147.33 32.00 189.00 C 44.00 189.00 56.00 189.00 68.00 189.00 C 68.00 171.00 68.00 153.00 68.00 135.00 C 85.67 135.00 103.33 135.00 121.00 135.00 C 121.00 153.00 121.00 171.00 121.00 189.00 C 133.00 189.00 145.00 189.00 157.00 189.00 C 157.00 170.67 157.00 152.33 157.00 134.00 C 151.00 134.00 145.00 134.00 139.00 134.00 C 139.00 128.33 139.00 122.67 139.00 117.00 C 145.00 117.00 151.00 117.00 157.00 117.00 C 157.00 105.00 157.00 93.00 157.00 81.00 C 151.00 81.00 145.00 81.00 139.00 81.00 C 139.00 75.33 139.00 69.66 139.00 64.00 C 103.33 64.00 67.67 64.00 32.00 64.00 Z M 212.00 64.00 C 212.03 69.72 211.90 75.42 212.13 81.14 C 206.10 81.39 200.08 81.22 194.04 81.23 C 193.95 93.16 194.03 105.08 194.00 117.00 C 200.00 117.00 206.00 117.00 212.00 117.00 C 212.00 123.00 212.00 129.00 212.00 135.00 C 235.66 135.00 259.33 135.00 283.00 135.00 C 283.00 147.00 283.00 159.00 283.00 171.00 C 265.33 171.00 247.67 171.00 230.00 171.00 C 230.00 165.00 230.00 159.00 230.00 153.00 C 218.00 153.00 206.00 153.00 194.00 153.00 C 194.00 159.00 194.00 165.00 194.00 171.00 C 200.00 171.00 206.00 171.00 212.00 171.00 C 212.00 177.00 212.00 183.00 212.00 189.00 C 241.67 189.00 271.33 189.00 301.00 189.00 C 301.00 183.00 301.00 177.00 301.00 171.00 C 307.00 171.00 313.00 171.00 319.00 171.00 C 319.00 159.00 319.00 147.00 319.00 135.00 C 313.00 135.00 307.00 135.00 301.00 135.00 C 301.00 129.00 301.00 123.00 301.00 117.00 C 277.00 117.00 253.00 117.00 229.00 117.00 C 229.00 105.00 229.00 93.00 229.00 81.00 C 247.00 81.00 265.00 81.00 283.00 81.00 C 283.00 87.00 283.00 93.00 283.00 99.00 C 295.00 99.00 307.00 99.00 319.00 99.00 C 319.00 93.00 319.00 87.00 319.00 81.00 C 313.00 81.00 307.00 81.00 301.00 81.00 C 301.00 75.33 301.00 69.66 301.00 64.00 C 271.33 64.00 241.66 64.00 212.00 64.00 Z M 373.00 64.00 C 373.00 69.75 373.00 75.50 373.00 81.25 C 367.01 81.28 361.02 81.26 355.04 81.23 C 354.95 93.16 355.03 105.09 355.00 117.02 C 361.00 117.03 366.99 117.02 372.99 117.02 C 373.00 123.02 373.00 129.01 373.00 135.00 C 396.66 135.00 420.33 135.00 444.00 135.00 C 444.00 147.00 444.00 159.00 444.00 171.00 C 426.67 171.00 409.33 171.00 392.00 171.00 C 392.00 165.00 392.00 159.00 392.00 153.00 C 379.67 153.00 367.33 153.00 355.00 153.00 C 355.00 159.00 355.00 165.00 355.00 171.00 C 361.00 171.00 367.00 171.00 373.00 171.00 C 373.00 177.00 373.00 183.00 373.00 189.00 C 403.00 189.00 433.00 189.00 463.00 189.00 C 463.00 183.00 463.00 177.00 463.00 171.00 C 469.00 171.00 475.00 171.00 481.00 171.00 C 481.00 159.00 481.00 147.00 481.00 135.00 C 475.00 135.00 469.00 135.00 463.00 135.00 C 463.00 129.00 463.00 123.00 463.00 117.00 C 439.34 117.00 415.67 117.00 392.00 117.00 C 392.00 105.00 392.00 93.00 392.00 81.00 C 409.33 81.00 426.67 81.00 444.00 81.00 C 444.00 87.00 444.00 93.00 444.00 99.00 C 456.33 99.00 468.67 99.00 481.00 99.00 C 480.99 93.08 481.04 87.16 480.96 81.23 C 474.97 81.25 468.99 81.32 463.00 81.21 C 463.00 75.47 463.00 69.74 463.00 64.00 C 433.00 64.00 403.00 64.00 373.00 64.00 Z" id="p2" />
<path d="M 32.00 64.00 C 67.67 64.00 103.33 64.00 139.00 64.00 C 139.00 69.66 139.00 75.33 139.00 81.00 C 145.00 81.00 151.00 81.00 157.00 81.00 C 157.00 93.00 157.00 105.00 157.00 117.00 C 151.00 117.00 145.00 117.00 139.00 117.00 C 139.00 122.67 139.00 128.33 139.00 134.00 C 145.00 134.00 151.00 134.00 157.00 134.00 C 157.00 152.33 157.00 170.67 157.00 189.00 C 145.00 189.00 133.00 189.00 121.00 189.00 C 121.00 171.00 121.00 153.00 121.00 135.00 C 103.33 135.00 85.67 135.00 68.00 135.00 C 68.00 153.00 68.00 171.00 68.00 189.00 C 56.00 189.00 44.00 189.00 32.00 189.00 C 32.00 147.33 32.00 105.67 32.00 64.00 Z M 33.00 65.00 C 33.00 106.00 33.00 147.00 33.00 188.00 C 44.33 188.00 55.67 188.00 67.00 188.00 C 67.00 170.00 67.00 152.00 67.00 134.00 C 85.33 134.00 103.67 134.00 122.00 134.00 C 122.00 152.00 122.00 170.00 122.00 188.00 C 133.33 188.00 144.67 188.00 156.00 188.00 C 156.00 170.33 156.00 152.67 156.00 135.00 C 150.00 135.00 144.00 135.00 138.00 135.00 C 138.00 128.67 138.00 122.33 138.00 116.00 C 144.00 116.00 150.00 116.00 156.00 116.00 C 156.00 104.67 156.00 93.33 156.00 82.00 C 150.00 82.00 144.00 82.00 138.00 82.00 C 138.00 76.33 138.00 70.67 138.00 65.00 C 103.00 65.00 68.00 65.00 33.00 65.00 Z" id="p3" />
<path d="M 212.00 64.00 C 241.66 64.00 271.33 64.00 301.00 64.00 C 301.00 69.66 301.00 75.33 301.00 81.00 C 307.00 81.00 313.00 81.00 319.00 81.00 C 319.00 87.00 319.00 93.00 319.00 99.00 C 307.00 99.00 295.00 99.00 283.00 99.00 C 283.00 93.00 283.00 87.00 283.00 81.00 C 265.00 81.00 247.00 81.00 229.00 81.00 C 229.00 93.00 229.00 105.00 229.00 117.00 C 253.00 117.00 277.00 117.00 301.00 117.00 C 301.00 123.00 301.00 129.00 301.00 135.00 C 307.00 135.00 313.00 135.00 319.00 135.00 C 319.00 147.00 319.00 159.00 319.00 171.00 C 313.00 171.00 307.00 171.00 301.00 171.00 C 301.00 177.00 301.00 183.00 301.00 189.00 C 271.33 189.00 241.67 189.00 212.00 189.00 C 212.00 183.00 212.00 177.00 212.00 171.00 C 206.00 171.00 200.00 171.00 194.00 171.00 C 194.00 165.00 194.00 159.00 194.00 153.00 C 206.00 153.00 218.00 153.00 230.00 153.00 C 230.00 159.00 230.00 165.00 230.00 171.00 C 247.67 171.00 265.33 171.00 283.00 171.00 C 283.00 159.00 283.00 147.00 283.00 135.00 C 259.33 135.00 235.66 135.00 212.00 135.00 C 212.00 129.00 212.00 123.00 212.00 117.00 C 206.00 117.00 200.00 117.00 194.00 117.00 C 194.03 105.08 193.95 93.16 194.04 81.23 C 200.08 81.22 206.10 81.39 212.13 81.14 C 211.90 75.42 212.03 69.72 212.00 64.00 Z M 213.00 65.00 C 212.99 70.66 213.06 76.31 212.93 81.97 C 206.95 82.02 200.98 81.99 195.00 81.98 C 195.00 93.32 195.00 104.66 195.00 116.00 C 201.00 116.00 207.00 116.00 213.00 116.00 C 213.00 122.00 213.00 128.00 213.00 134.00 C 236.67 134.00 260.33 134.00 284.00 134.00 C 284.00 146.67 284.00 159.33 284.00 172.00 C 265.68 171.98 247.36 172.04 229.04 171.97 C 228.96 165.98 229.01 159.99 229.00 154.00 C 217.67 154.00 206.33 154.00 195.00 154.00 C 195.00 159.33 195.00 164.67 195.00 170.00 C 201.00 170.00 207.00 170.00 213.00 170.00 C 213.00 176.00 213.00 182.00 213.00 188.00 C 242.00 188.00 271.00 188.00 300.00 188.00 C 300.00 182.00 300.00 176.00 300.00 170.00 C 306.00 170.00 312.00 170.00 318.00 170.00 C 318.00 158.67 318.00 147.33 318.00 136.00 C 312.00 136.00 306.00 136.00 300.00 136.00 C 300.00 130.00 300.00 124.00 300.00 118.00 C 276.02 117.95 252.04 118.09 228.07 117.93 C 227.91 105.29 228.04 92.64 228.00 80.00 C 246.67 80.00 265.33 80.00 284.00 80.00 C 284.00 86.00 284.00 92.00 284.00 98.00 C 295.33 98.00 306.67 98.00 318.00 98.00 C 318.00 92.67 318.00 87.33 318.00 82.00 C 312.00 82.00 306.00 82.00 300.00 82.00 C 300.00 76.33 300.00 70.67 300.00 65.00 C 271.00 65.00 242.00 65.00 213.00 65.00 Z" id="p4" />
<path d="M 373.00 64.00 C 403.00 64.00 433.00 64.00 463.00 64.00 C 463.00 69.74 463.00 75.47 463.00 81.21 C 468.99 81.32 474.97 81.25 480.96 81.23 C 481.04 87.16 480.99 93.08 481.00 99.00 C 468.67 99.00 456.33 99.00 444.00 99.00 C 444.00 93.00 444.00 87.00 444.00 81.00 C 426.67 81.00 409.33 81.00 392.00 81.00 C 392.00 93.00 392.00 105.00 392.00 117.00 C 415.67 117.00 439.34 117.00 463.00 117.00 C 463.00 123.00 463.00 129.00 463.00 135.00 C 469.00 135.00 475.00 135.00 481.00 135.00 C 481.00 147.00 481.00 159.00 481.00 171.00 C 475.00 171.00 469.00 171.00 463.00 171.00 C 463.00 177.00 463.00 183.00 463.00 189.00 C 433.00 189.00 403.00 189.00 373.00 189.00 C 373.00 183.00 373.00 177.00 373.00 171.00 C 367.00 171.00 361.00 171.00 355.00 171.00 C 355.00 165.00 355.00 159.00 355.00 153.00 C 367.33 153.00 379.67 153.00 392.00 153.00 C 392.00 159.00 392.00 165.00 392.00 171.00 C 409.33 171.00 426.67 171.00 444.00 171.00 C 444.00 159.00 444.00 147.00 444.00 135.00 C 420.33 135.00 396.66 135.00 373.00 135.00 C 373.00 129.01 373.00 123.02 372.99 117.02 C 366.99 117.02 361.00 117.03 355.00 117.02 C 355.03 105.09 354.95 93.16 355.04 81.23 C 361.02 81.26 367.01 81.28 373.00 81.25 C 373.00 75.50 373.00 69.75 373.00 64.00 Z M 374.00 65.00 C 374.00 70.67 374.00 76.33 374.00 82.00 C 368.00 82.00 362.00 82.00 356.00 81.98 C 356.00 93.32 356.00 104.66 356.00 116.00 C 362.00 116.00 368.00 116.00 374.00 116.00 C 374.00 122.00 374.00 128.00 374.00 134.00 C 397.67 134.00 421.33 134.00 445.00 134.00 C 445.00 146.67 445.00 159.33 445.00 172.00 C 427.01 171.98 409.02 172.04 391.04 171.97 C 390.96 165.98 391.01 159.99 391.00 154.00 C 379.33 154.00 367.67 154.00 356.00 154.00 C 356.00 159.33 356.00 164.67 356.00 170.00 C 362.00 170.00 368.00 170.00 374.00 170.00 C 374.00 176.00 374.00 182.00 374.00 188.00 C 403.33 188.00 432.67 188.00 462.00 188.00 C 462.00 182.00 462.00 176.00 462.00 170.00 C 468.00 170.00 474.00 170.00 480.00 170.00 C 480.00 158.67 480.00 147.33 480.00 136.00 C 474.00 136.00 468.00 136.00 462.00 136.00 C 462.00 130.00 462.00 124.00 462.00 118.00 C 438.33 118.00 414.67 118.00 391.00 118.00 C 391.00 105.33 391.00 92.67 391.00 80.00 C 409.00 80.00 427.00 80.00 445.00 80.00 C 445.00 86.00 445.00 92.00 445.00 98.00 C 456.67 98.00 468.33 98.00 480.00 98.00 C 480.00 92.66 480.00 87.32 480.00 81.98 C 474.00 81.97 468.01 82.07 462.02 81.91 C 461.98 76.28 462.00 70.64 462.00 65.00 C 432.67 65.00 403.33 65.00 374.00 65.00 Z" id="p5" />
<path d="M 33.00 65.00 C 68.00 65.00 103.00 65.00 138.00 65.00 C 138.00 70.67 138.00 76.33 138.00 82.00 C 144.00 82.00 150.00 82.00 156.00 82.00 C 156.00 93.33 156.00 104.67 156.00 116.00 C 150.00 116.00 144.00 116.00 138.00 116.00 C 138.00 122.33 138.00 128.67 138.00 135.00 C 144.00 135.00 150.00 135.00 156.00 135.00 C 156.00 152.67 156.00 170.33 156.00 188.00 C 144.67 188.00 133.33 188.00 122.00 188.00 C 122.00 170.00 122.00 152.00 122.00 134.00 C 103.67 134.00 85.33 134.00 67.00 134.00 C 67.00 152.00 67.00 170.00 67.00 188.00 C 55.67 188.00 44.33 188.00 33.00 188.00 C 33.00 147.00 33.00 106.00 33.00 65.00 Z M 67.00 80.00 C 67.00 92.67 67.00 105.33 67.00 118.00 C 85.33 118.00 103.67 118.00 122.00 118.00 C 122.00 105.33 122.00 92.67 122.00 80.00 C 103.67 80.00 85.33 80.00 67.00 80.00 Z" id="p6" />
<path d="M 213.00 65.00 C 242.00 65.00 271.00 65.00 300.00 65.00 C 300.00 70.67 300.00 76.33 300.00 82.00 C 306.00 82.00 312.00 82.00 318.00 82.00 C 318.00 87.33 318.00 92.67 318.00 98.00 C 306.67 98.00 295.33 98.00 284.00 98.00 C 284.00 92.00 284.00 86.00 284.00 80.00 C 265.33 80.00 246.67 80.00 228.00 80.00 C 228.04 92.64 227.91 105.29 228.07 117.93 C 252.04 118.09 276.02 117.95 300.00 118.00 C 300.00 124.00 300.00 130.00 300.00 136.00 C 306.00 136.00 312.00 136.00 318.00 136.00 C 318.00 147.33 318.00 158.67 318.00 170.00 C 312.00 170.00 306.00 170.00 300.00 170.00 C 300.00 176.00 300.00 182.00 300.00 188.00 C 271.00 188.00 242.00 188.00 213.00 188.00 C 213.00 182.00 213.00 176.00 213.00 170.00 C 207.00 170.00 201.00 170.00 195.00 170.00 C 195.00 164.67 195.00 159.33 195.00 154.00 C 206.33 154.00 217.67 154.00 229.00 154.00 C 229.01 159.99 228.96 165.98 229.04 171.97 C 247.36 172.04 265.68 171.98 284.00 172.00 C 284.00 159.33 284.00 146.67 284.00 134.00 C 260.33 134.00 236.67 134.00 213.00 134.00 C 213.00 128.00 213.00 122.00 213.00 116.00 C 207.00 116.00 201.00 116.00 195.00 116.00 C 195.00 104.66 195.00 93.32 195.00 81.98 C 200.98 81.99 206.95 82.02 212.93 81.97 C 213.06 76.31 212.99 70.66 213.00 65.00 Z" id="p7" />
<path d="M 374.00 65.00 C 403.33 65.00 432.67 65.00 462.00 65.00 C 462.00 70.64 461.98 76.28 462.02 81.91 C 468.01 82.07 474.00 81.97 480.00 81.98 C 480.00 87.32 480.00 92.66 480.00 98.00 C 468.33 98.00 456.67 98.00 445.00 98.00 C 445.00 92.00 445.00 86.00 445.00 80.00 C 427.00 80.00 409.00 80.00 391.00 80.00 C 391.00 92.67 391.00 105.33 391.00 118.00 C 414.67 118.00 438.33 118.00 462.00 118.00 C 462.00 124.00 462.00 130.00 462.00 136.00 C 468.00 136.00 474.00 136.00 480.00 136.00 C 480.00 147.33 480.00 158.67 480.00 170.00 C 474.00 170.00 468.00 170.00 462.00 170.00 C 462.00 176.00 462.00 182.00 462.00 188.00 C 432.67 188.00 403.33 188.00 374.00 188.00 C 374.00 182.00 374.00 176.00 374.00 170.00 C 368.00 170.00 362.00 170.00 356.00 170.00 C 356.00 164.67 356.00 159.33 356.00 154.00 C 367.67 154.00 379.33 154.00 391.00 154.00 C 391.01 159.99 390.96 165.98 391.04 171.97 C 409.02 172.04 427.01 171.98 445.00 172.00 C 445.00 159.33 445.00 146.67 445.00 134.00 C 421.33 134.00 397.67 134.00 374.00 134.00 C 374.00 128.00 374.00 122.00 374.00 116.00 C 368.00 116.00 362.00 116.00 356.00 116.00 C 356.00 104.66 356.00 93.32 356.00 81.98 C 362.00 82.00 368.00 82.00 374.00 82.00 C 374.00 76.33 374.00 70.67 374.00 65.00 Z" id="p8" />
<path d="M 67.00 80.00 C 85.33 80.00 103.67 80.00 122.00 80.00 C 122.00 92.67 122.00 105.33 122.00 118.00 C 103.67 118.00 85.33 118.00 67.00 118.00 C 67.00 105.33 67.00 92.67 67.00 80.00 Z M 68.00 81.00 C 68.00 93.00 68.00 105.00 68.00 117.00 C 85.67 117.00 103.33 117.00 121.00 117.00 C 121.00 105.00 121.00 93.00 121.00 81.00 C 103.33 81.00 85.67 81.00 68.00 81.00 Z" id="p9" />
<path d="M 68.00 81.00 C 85.67 81.00 103.33 81.00 121.00 81.00 C 121.00 93.00 121.00 105.00 121.00 117.00 C 103.33 117.00 85.67 117.00 68.00 117.00 C 68.00 105.00 68.00 93.00 68.00 81.00 Z" id="p10" />
</defs>
<g stroke-width="10pt">
<use stroke="#ffffff" xlink:href="#p0" />
<use stroke="#000000" xlink:href="#p1" />
<use stroke="#1aadff" xlink:href="#p2" />
<use stroke="#000000" xlink:href="#p3" />
<use stroke="#000000" xlink:href="#p4" />
<use stroke="#000000" xlink:href="#p5" />
<use stroke="#ffffff" xlink:href="#p6" />
<use stroke="#ffffff" xlink:href="#p7" />
<use stroke="#ffffff" xlink:href="#p8" />
<use stroke="#000000" xlink:href="#p9" />
<use stroke="#1aadff" xlink:href="#p10" />
</g>
<g>
<use fill="#ffffff" xlink:href="#p0" />
<use fill="#000000" xlink:href="#p1" />
<use fill="#1aadff" xlink:href="#p2" />
<use fill="#000000" xlink:href="#p3" />
<use fill="#000000" xlink:href="#p4" />
<use fill="#000000" xlink:href="#p5" />
<use fill="#ffffff" xlink:href="#p6" />
<use fill="#ffffff" xlink:href="#p7" />
<use fill="#ffffff" xlink:href="#p8" />
<use fill="#000000" xlink:href="#p9" />
<use fill="#1aadff" xlink:href="#p10" />
</g>
</svg>